<svg xmlns="http://www.w3.org/2000/svg" viewBox="0 0 180 180" fill="none" shape-rendering="auto"><metadata xmlns:rdf="http://www.w3.org/1999/02/22-rdf-syntax-ns#" xmlns:xsi="http://www.w3.org/2001/XMLSchema-instance" xmlns:dc="http://purl.org/dc/elements/1.1/" xmlns:dcterms="http://purl.org/dc/terms/"><rdf:RDF><rdf:Description><dc:title>Bottts</dc:title><dc:creator>Pablo Stanley</dc:creator><dc:source xsi:type="dcterms:URI">https://bottts.com/</dc:source><dcterms:license xsi:type="dcterms:URI">https://bottts.com/</dcterms:license><dc:rights>Remix of „Bottts” (https://bottts.com/) by „Pablo Stanley”, licensed under „Free for personal and commercial use” (https://bottts.com/)</dc:rights></rdf:Description></rdf:RDF></metadata><mask id="viewboxMask"><rect width="180" height="180" rx="0" ry="0" x="0" y="0" fill="#fff" /></mask><g mask="url(#viewboxMask)"><g transform="translate(0 66)"><mask id="sidesRound-a" style="mask-type:luminance" maskUnits="userSpaceOnUse" x="12" y="16" width="156" height="45"><g fill="#fff"><ellipse cx="150" cy="38.5" rx="18" ry="22.5"/><ellipse cx="18" cy="22.5" rx="18" ry="22.5" transform="matrix(-1 0 0 1 48 16)"/></g></mask><g mask="url(#sidesRound-a)"><path d="M0 0h180v76H0V0Z" fill="#fdd835"/><path d="M0 0h180v76H0V0Z" fill="#fff" fill-opacity=".3"/><path fill="#000" fill-opacity=".2" d="M20 0h140v76H20z"/></g></g><g transform="translate(41)"><mask id="topRadar-a" style="mask-type:luminance" maskUnits="userSpaceOnUse" x="37" y="0" width="36" height="53"><g fill="#fff"><path fill-rule="evenodd" clip-rule="evenodd" d="M43.8.11A20 20 0 1 0 72.08 28.4"/><circle cx="67.13" cy="5.06" r="4" transform="rotate(45 67.13 5.06)"/><path transform="rotate(45 64.3 6.48)" d="M64.31 6.48h2v26h-2z"/><path d="M47.94 28.11h4v24h-4z"/></g></mask><g mask="url(#topRadar-a)"><path d="M0 0h100v52H0V0Z" fill="#90A4AE"/><path d="M0 0h100v52H0V0Z" fill="#fff" fill-opacity=".3"/><path fill-rule="evenodd" clip-rule="evenodd" d="M43.8.11A20 20 0 1 0 72.08 28.4" fill="#fff" fill-opacity=".2"/><circle cx="67.13" cy="7.41" r="5.66" transform="rotate(45 67.13 7.4)" fill="#fff" fill-opacity=".8"/></g></g><g transform="translate(25 44)"><mask id="faceSquare03-a" style="mask-type:luminance" maskUnits="userSpaceOnUse" x="0" y="0" width="130" height="120"><path fill-rule="evenodd" clip-rule="evenodd" d="M0 18A18 18 0 0 1 18 0h94a18 18 0 0 1 18 18v27.15a40 40 0 0 1-2.28 13.31L110.24 108a18 18 0 0 1-16.98 12H36.74a18 18 0 0 1-16.98-12L2.28 58.45A40 40 0 0 1 0 45.15V18Z" fill="#fff"/></mask><g mask="url(#faceSquare03-a)"><path d="M-2-2h134v124H-2V-2Z" fill="#fdd835"/><g transform="translate(-1 -1)"><g fill-rule="evenodd" clip-rule="evenodd" fill="#000"><path d="M-9.12 122.1c4.36-30.7 13.06-4.57 33.99-9.98 9.24-2.39 1.77-12.82 8.67-17.35 5.82-3.82 13.76-.74 20.43-3.21 9.63-3.57 9.5-10.82 18.48-11.9 8.48-1.03 17.37 2.34 25.93 1.08 16.15-2.4 9.53-34.03 21.64-39.61 12.1-5.6 32.05 4.06 34.66 19.87 2.54 15.42-14.46 72.78-14.46 72.78H-9.12" fill-opacity=".2"/><path d="M35.93 122c37.67 0 41.6-14.75 60.14-21.5 18.53-6.76 34.78 10.71 41-6.27 6.24-16.98 6.2 35.95 6.2 35.95H35.94V122Z" fill-opacity=".1"/><path d="M-2 4.87C9.73 3.75 5.96 16.8 10.6 16.8c1.85 0 4.03-8.46 7.38-8.46 2.46 0 2 5.5 7.32 4.91 5-.54 4.08-4 6.6-4 5.45 0 3.39 20.2 7.74 20.2 4.36 0 5.73-14.8 7.65-20.64 2.43-7.4 16.97-11.56 6.6-14.5H-2.29" fill-opacity=".4"/></g></g></g></g><g transform="translate(52 124)"><path d="M27.05 8.44a2 2 0 1 1 3.9-.88C31.72 10.96 34.4 13 38 13c3.6 0 6.28-2.04 7.05-5.44a2 2 0 1 1 3.9.88C47.75 13.7 43.43 17 38 17s-9.76-3.3-10.95-8.56Z" fill="#000" fill-opacity=".6"/></g><g transform="translate(38 76)"><path d="M28 44a20 20 0 0 0 19.9-18h41.52a5 5 0 1 0 0-4H47.9A20 20 0 1 0 28 44Z" fill="#000" fill-opacity=".2"/><circle cx="94" cy="24" r="2" fill="#fff"/><circle cx="28" cy="24" r="16" fill="#000" fill-opacity=".6"/><circle cx="34" cy="16" r="3" fill="#fff"/></g></g></svg>